<svg width="16" height="12" viewBox="0 0 16 12" fill="none" xmlns="http://www.w3.org/2000/svg">
<path d="M0 1.41037V1C0 0.734784 0.105357 0.48043 0.292893 0.292893C0.48043 0.105357 0.734784 0 1 0L15 0C15.2652 0 15.5196 0.105357 15.7071 0.292893C15.8946 0.48043 16 0.734784 16 1V1.41037L8 6.41038L0 1.41037ZM8.265 7.42413C8.18551 7.47374 8.0937 7.50004 8 7.50004C7.9063 7.50004 7.81449 7.47374 7.735 7.42413L0 2.58962V11C0 11.2652 0.105357 11.5196 0.292893 11.7071C0.48043 11.8946 0.734784 12 1 12H15C15.2652 12 15.5196 11.8946 15.7071 11.7071C15.8946 11.5196 16 11.2652 16 11V2.58962L8.265 7.42413Z" fill="white"/>
</svg>
