<svg width="20" height="20" viewBox="0 0 20 20" fill="none" xmlns="http://www.w3.org/2000/svg">
<path d="M17.6429 0.000134004H1.40875C1.22626 -0.00240042 1.04506 0.0310379 0.8755 0.0985393C0.705937 0.166041 0.551332 0.266283 0.420514 0.393541C0.289696 0.5208 0.185228 0.672581 0.113076 0.840218C0.0409231 1.00785 0.00249971 1.18806 0 1.37055V17.7964C0.00249971 17.9789 0.0409231 18.1591 0.113076 18.3267C0.185228 18.4944 0.289696 18.6461 0.420514 18.7734C0.551332 18.9007 0.705937 19.0009 0.8755 19.0684C1.04506 19.1359 1.22626 19.1693 1.40875 19.1668H17.6429C17.8254 19.1693 18.0066 19.1359 18.1762 19.0684C18.3457 19.0009 18.5003 18.9007 18.6312 18.7734C18.762 18.6461 18.8664 18.4944 18.9386 18.3267C19.0107 18.1591 19.0492 17.9789 19.0517 17.7964V1.37055C19.0492 1.18806 19.0107 1.00785 18.9386 0.840218C18.8664 0.672581 18.762 0.5208 18.6312 0.393541C18.5003 0.266283 18.3457 0.166041 18.1762 0.0985393C18.0066 0.0310379 17.8254 -0.00240042 17.6429 0.000134004ZM5.77875 16.0426H2.90375V7.41763H5.77875V16.0426ZM4.34125 6.21013C3.94475 6.21013 3.56449 6.05263 3.28413 5.77226C3.00376 5.49189 2.84625 5.11163 2.84625 4.71513C2.84625 4.31864 3.00376 3.93838 3.28413 3.65801C3.56449 3.37764 3.94475 3.22013 4.34125 3.22013C4.55179 3.19626 4.765 3.21712 4.96692 3.28136C5.16884 3.34559 5.35492 3.45175 5.51296 3.59289C5.67101 3.73402 5.79746 3.90695 5.88404 4.10035C5.97062 4.29374 6.01538 4.50324 6.01538 4.71513C6.01538 4.92702 5.97062 5.13653 5.88404 5.32992C5.79746 5.52332 5.67101 5.69624 5.51296 5.83738C5.35492 5.97851 5.16884 6.08468 4.96692 6.14891C4.765 6.21315 4.55179 6.23401 4.34125 6.21013ZM16.1479 16.0426H13.2729V11.4139C13.2729 10.2543 12.8608 9.49722 11.8163 9.49722C11.493 9.49958 11.1782 9.60099 10.9143 9.78776C10.6504 9.97453 10.4501 10.2377 10.3404 10.5418C10.2654 10.767 10.2329 11.0043 10.2446 11.2414V16.033H7.36958C7.36958 16.033 7.36958 8.19388 7.36958 7.40805H10.2446V8.62513C10.5058 8.17194 10.8856 7.79859 11.3433 7.54529C11.8009 7.29198 12.319 7.16832 12.8417 7.18763C14.7583 7.18763 16.1479 8.42388 16.1479 11.0785V16.0426Z" fill="white"/>
</svg>
